<svg width="180" height="136" viewBox="0 0 180 136" fill="none" xmlns="http://www.w3.org/2000/svg">
<g id="&#225;&#132;&#139;&#225;&#133;&#161;&#225;&#132;&#134;&#225;&#133;&#166;&#225;&#134;&#171;&#225;&#132;&#144;&#225;&#133;&#169; AMENTO 2">
<path id="Vector" d="M11.2861 60.7781V56.0801C11.2501 39.9161 18.6121 31.2041 28.2961 31.2041H32.9041V60.7781H28.2421V53.1281C22.8241 53.1281 22.8241 60.7781 15.7141 60.7781H11.2681H11.2861ZM15.7321 55.8281C21.2761 55.8281 20.8081 48.2141 28.2601 48.2141V35.6861C20.6461 35.6861 15.7321 44.0561 15.7321 55.6121V55.8281Z" fill="white"/>
<path id="Vector_2" d="M38.8979 31.168H43.5599C43.5239 36.586 49.6079 38.152 53.0279 46.864C56.4479 38.152 62.5499 36.586 62.4959 31.168H67.1939V60.778H62.4959V41.284C59.2379 45.262 55.3859 49.834 55.3859 60.778H50.6519C50.6519 49.78 46.7999 45.244 43.5419 41.284V60.778H38.8799V31.168H38.8979Z" fill="white"/>
<path id="Vector_3" d="M78.0839 60.778V60.814H73.4219V31.24H90.5579V35.722H78.0839V48.196H90.5579V52.678H78.0839V56.278H90.5579V60.76H78.0839V60.778Z" fill="white"/>
<path id="Vector_4" d="M96.21 31.2581H101.034C100.944 37.9361 108.432 42.6881 113.382 49.2761V31.2581H118.044V60.8321H113.184C113.184 53.7581 105.786 48.9881 100.872 42.5621V60.8321H96.21V31.2581Z" fill="white"/>
<path id="Vector_5" d="M133.956 35.7039V60.7959H129.258V35.7039H122.4V31.2219H140.814V35.7039H133.956Z" fill="white"/>
<path id="Vector_6" d="M156.06 30.6641C162.162 30.6641 168.714 35.3261 168.714 46.0181C168.714 56.7101 162.162 61.3361 156.06 61.3361C149.958 61.3361 143.46 56.6381 143.46 46.0181C143.46 35.3981 149.976 30.6641 156.06 30.6641ZM156.06 56.8901C159.696 56.8901 163.8 54.1901 163.8 46.0181C163.8 37.8461 159.696 35.1821 156.06 35.1821C152.424 35.1821 148.356 37.8821 148.356 46.0181C148.356 54.1541 152.46 56.8901 156.06 56.8901Z" fill="white"/>
</g>
</svg>
