<svg width="16" height="18" viewBox="0 0 16 18" fill="none" xmlns="http://www.w3.org/2000/svg">
<path id="Vector" d="M15.0147 5.1453L9.9747 0.1053C9.94124 0.0718797 9.90153 0.0453786 9.85783 0.0273109C9.81412 0.00924321 9.76729 -3.70749e-05 9.72 1.11312e-07H1.08C0.793566 1.11312e-07 0.518864 0.113786 0.316325 0.316325C0.113785 0.518864 0 0.793566 0 1.08V16.92C0 17.2064 0.113785 17.4811 0.316325 17.6837C0.518864 17.8862 0.793566 18 1.08 18H14.04C14.3264 18 14.6011 17.8862 14.8037 17.6837C15.0062 17.4811 15.12 17.2064 15.12 16.92V5.4C15.12 5.35271 15.1108 5.30588 15.0927 5.26217C15.0746 5.21847 15.0481 5.17876 15.0147 5.1453ZM10.08 1.2285L13.8906 5.04H10.08V1.2285ZM14.04 17.28H1.08C0.984522 17.28 0.892955 17.2421 0.825442 17.1746C0.757928 17.107 0.72 17.0155 0.72 16.92V1.08C0.72 0.984522 0.757928 0.892955 0.825442 0.825442C0.892955 0.757929 0.984522 0.72 1.08 0.72H9.36V5.4C9.36 5.49548 9.39793 5.58705 9.46544 5.65456C9.53295 5.72207 9.62452 5.76 9.72 5.76H14.4V16.92C14.4 17.0155 14.3621 17.107 14.2946 17.1746C14.227 17.2421 14.1355 17.28 14.04 17.28Z" fill="black"/>
</svg>